<?xml version="1.0" encoding="UTF-8" standalone="no"?>
<!-- Created with Inkscape (http://www.inkscape.org/) -->

<svg
   xmlns:dc="http://purl.org/dc/elements/1.1/"
   xmlns:cc="http://creativecommons.org/ns#"
   xmlns:rdf="http://www.w3.org/1999/02/22-rdf-syntax-ns#"
   xmlns:svg="http://www.w3.org/2000/svg"
   xmlns="http://www.w3.org/2000/svg"
   xmlns:xlink="http://www.w3.org/1999/xlink"
   xmlns:sodipodi="http://sodipodi.sourceforge.net/DTD/sodipodi-0.dtd"
   xmlns:inkscape="http://www.inkscape.org/namespaces/inkscape"
   width="210mm"
   height="297mm"
   id="svg2"
   version="1.1"
   inkscape:version="0.47 r22583"
   sodipodi:docname="Jubarte_Logo_0.svg">
  <defs
     id="defs4">
    <linearGradient
       inkscape:collect="always"
       id="linearGradient5336">
      <stop
         style="stop-color:#ffffff;stop-opacity:1;"
         offset="0"
         id="stop5338" />
      <stop
         style="stop-color:#ffffff;stop-opacity:0;"
         offset="1"
         id="stop5340" />
    </linearGradient>
    <linearGradient
       inkscape:collect="always"
       id="linearGradient5196">
      <stop
         style="stop-color:#ffffff;stop-opacity:1;"
         offset="0"
         id="stop5198" />
      <stop
         style="stop-color:#ffffff;stop-opacity:0;"
         offset="1"
         id="stop5200" />
    </linearGradient>
    <linearGradient
       inkscape:collect="always"
       id="linearGradient5136">
      <stop
         style="stop-color:#070034;stop-opacity:1;"
         offset="0"
         id="stop5138" />
      <stop
         style="stop-color:#070034;stop-opacity:0;"
         offset="1"
         id="stop5140" />
    </linearGradient>
    <linearGradient
       inkscape:collect="always"
       id="linearGradient5122">
      <stop
         style="stop-color:#070034;stop-opacity:1;"
         offset="0"
         id="stop5124" />
      <stop
         style="stop-color:#070034;stop-opacity:0;"
         offset="1"
         id="stop5126" />
    </linearGradient>
    <inkscape:perspective
       sodipodi:type="inkscape:persp3d"
       inkscape:vp_x="0 : 526.18109 : 1"
       inkscape:vp_y="0 : 1000 : 0"
       inkscape:vp_z="744.09448 : 526.18109 : 1"
       inkscape:persp3d-origin="372.04724 : 350.78739 : 1"
       id="perspective10" />
    <radialGradient
       inkscape:collect="always"
       xlink:href="#linearGradient5122"
       id="radialGradient5130"
       cx="294.5"
       cy="544.36218"
       fx="294.5"
       fy="544.36218"
       r="114.5"
       gradientTransform="matrix(1,0,0,0.98689956,0,7.1313823)"
       gradientUnits="userSpaceOnUse" />
    <radialGradient
       inkscape:collect="always"
       xlink:href="#linearGradient5136"
       id="radialGradient5144"
       cx="334.39816"
       cy="597.30884"
       fx="334.39816"
       fy="597.30884"
       r="153.96924"
       gradientTransform="matrix(1,0,0,0.26931876,0,436.44236)"
       gradientUnits="userSpaceOnUse" />
    <radialGradient
       inkscape:collect="always"
       xlink:href="#linearGradient5196"
       id="radialGradient5202"
       cx="334.39815"
       cy="597.30884"
       fx="334.39815"
       fy="597.30884"
       r="153.46924"
       gradientTransform="matrix(1,0,0,0.26693822,0,437.86429)"
       gradientUnits="userSpaceOnUse" />
    <inkscape:perspective
       id="perspective5220"
       inkscape:persp3d-origin="0.5 : 0.33333333 : 1"
       inkscape:vp_z="1 : 0.5 : 1"
       inkscape:vp_y="0 : 1000 : 0"
       inkscape:vp_x="0 : 0.5 : 1"
       sodipodi:type="inkscape:persp3d" />
    <filter
       inkscape:collect="always"
       id="filter5332"
       x="-0.067373296"
       width="1.1347466"
       y="-0.26755344"
       height="1.5351069">
      <feGaussianBlur
         inkscape:collect="always"
         stdDeviation="7.0370774"
         id="feGaussianBlur5334" />
    </filter>
    <linearGradient
       inkscape:collect="always"
       xlink:href="#linearGradient5336"
       id="linearGradient5346"
       x1="256.67273"
       y1="684.77881"
       x2="541.12848"
       y2="684.77881"
       gradientUnits="userSpaceOnUse" />
  </defs>
  <sodipodi:namedview
     id="base"
     pagecolor="#ffffff"
     bordercolor="#666666"
     borderopacity="1.0"
     inkscape:pageopacity="0.0"
     inkscape:pageshadow="2"
     inkscape:zoom="0.70710678"
     inkscape:cx="584.83974"
     inkscape:cy="501.87156"
     inkscape:document-units="px"
     inkscape:current-layer="layer1"
     showgrid="false"
     inkscape:window-width="1280"
     inkscape:window-height="725"
     inkscape:window-x="0"
     inkscape:window-y="24"
     inkscape:window-maximized="1" />
  <metadata
     id="metadata7">
    <rdf:RDF>
      <cc:Work
         rdf:about="">
        <dc:format>image/svg+xml</dc:format>
        <dc:type
           rdf:resource="http://purl.org/dc/dcmitype/StillImage" />
        <dc:title></dc:title>
      </cc:Work>
    </rdf:RDF>
  </metadata>
  <g
     inkscape:label="Camada 1"
     inkscape:groupmode="layer"
     id="layer1">
    <path
       transform="matrix(2.294693,0,0,2.2341575,-280.51496,-615.42916)"
       d="m 403,544.36218 a 108.5,107 0 1 1 -217,0 108.5,107 0 1 1 217,0 z"
       sodipodi:ry="107"
       sodipodi:rx="108.5"
       sodipodi:cy="544.36218"
       sodipodi:cx="294.5"
       id="path5106"
       style="fill:#e6e6e6;fill-opacity:1;stroke:url(#radialGradient5130);stroke-width:11.9999361;stroke-miterlimit:4;stroke-opacity:1;stroke-dasharray:none"
       sodipodi:type="arc" />
    <path
       sodipodi:type="arc"
       style="fill:#800000;fill-opacity:1;stroke:#be7d7d;stroke-width:12;stroke-miterlimit:4;stroke-opacity:1;stroke-dasharray:none"
       id="path2816"
       sodipodi:cx="294.5"
       sodipodi:cy="544.36218"
       sodipodi:rx="108.5"
       sodipodi:ry="107"
       d="m 403,544.36218 a 108.5,107 0 1 1 -217,0 108.5,107 0 1 1 217,0 z"
       transform="matrix(2.0408878,0,0,2.0032281,-206.47645,-487.59867)" />
    <text
       xml:space="preserve"
       style="font-size:85.35098267px;font-style:normal;font-weight:normal;opacity:0.98999999;fill:#ffffff;fill-opacity:1;stroke:none;font-family:Bitstream Vera Sans"
       x="241.04356"
       y="624.04999"
       id="text5102"
       transform="scale(1.0116018,0.98853126)"><tspan
         sodipodi:role="line"
         id="tspan5104"
         x="241.04356"
         y="624.04999"
         style="fill:#ffffff;fill-opacity:1;stroke:none">Jubarte</tspan></text>
    <path
       style="opacity:0.83164984;fill:url(#linearGradient5346);fill-opacity:1;stroke:none;filter:url(#filter5332)"
       id="path5318"
       d="m 301.78149,686.09021 c -59.93897,20.77656 -8.00162,2.78548 6.58103,-2.32568 8.15635,-2.85876 -16.28775,5.74517 -24.52919,8.51314 -1.73534,0.58284 3.35996,-1.27987 5.00179,-1.95464 2.87435,-1.1813 7.40431,-3.22204 10.19932,-4.46601 9.54284,-4.36007 18.95176,-8.82636 28.56898,-13.12655 15.13421,-7.33339 31.91199,-12.52286 48.84211,-18.38668 4.72711,-1.17139 9.48539,-1.41713 14.42832,-0.79514 4.88835,0.94196 8.93789,2.67974 12.86233,4.62401 4.32464,2.37419 8.95474,4.51222 12.7115,7.23312 2.85479,2.53108 4.63115,5.43648 5.85038,8.39327 1.24498,2.47412 3.13402,4.78429 4.34571,7.26533 1.46042,2.74748 3.12323,5.45513 4.81899,8.15244 1.4834,2.39909 3.46249,4.67913 5.46191,6.93421 1.89059,2.28599 4.56955,4.09918 7.51786,5.87452 2.87589,1.56395 6.63076,1.73646 10.31135,1.89786 4.53573,0.12701 9.07864,0.0909 13.61768,0.0779 3.07261,-0.12306 6.2494,0.26037 9.24805,-0.29069 1.52596,-0.28043 2.96572,-0.71086 4.46293,-1.04322 11.18278,-4.30226 -1.56679,0.62857 -25.73685,8.8208 -0.63734,0.21602 1.21276,-0.49646 1.76689,-0.78449 1.77888,-0.92465 3.12038,-2.06941 4.47568,-3.21257 2.897,-2.15985 4.93707,-4.60723 6.74882,-7.14375 2.0054,-3.0056 3.63811,-6.08849 5.64643,-9.09359 1.76631,-2.78651 5.07001,-5.01329 7.86852,-7.42488 3.02561,-2.36776 6.11751,-4.69144 9.40302,-6.92839 0,0 31.98442,-8.01441 31.98442,-8.01441 l 0,0 c -3.69743,1.97289 -6.49382,4.41084 -9.66037,6.67887 -3.24857,2.41125 5.6e-4,-0.1064 -3.02831,2.58982 -1.68505,1.49999 -4.15583,2.64398 -5.11389,4.42116 -2.49923,2.84714 -3.71164,5.99679 -5.7922,8.95919 -1.46136,2.74234 -3.50667,5.32892 -6.27409,7.68223 -3.65908,2.75336 0.87605,-0.75732 -2.71728,2.37182 -8.37312,7.29146 -23.40561,10.778 -36.86187,13.91045 -4.72326,0.8676 -9.48598,0.89423 -14.39622,0.8085 -4.62807,0.004 -9.27173,0.0363 -13.88038,-0.2596 -4.34926,-0.39295 -8.4461,-1.10027 -11.61824,-3.06522 -3.17121,-1.92152 -5.86157,-4.02707 -8.06504,-6.4043 -2.03472,-2.33883 -4.01801,-4.71055 -5.55728,-7.1857 -1.79368,-2.74151 -3.40413,-5.52781 -5.02673,-8.3078 -1.134,-2.53518 -3.16728,-4.84071 -4.39321,-7.35856 -0.96311,-2.66164 -2.51172,-5.27119 -5.00905,-7.55352 -3.63544,-2.5854 -8.08214,-4.67141 -12.30455,-6.89026 -3.61683,-1.66653 -7.43251,-3.19617 -12.01071,-3.65962 -4.53549,-0.23303 -8.93696,0.50592 -12.95854,1.77064 53.64825,-18.91519 20.73132,-7.82988 9.61793,-2.23253 -9.76704,4.23479 -19.21264,8.73135 -28.7457,13.15494 -4.89206,2.1883 -9.67584,4.66856 -14.91297,6.55462 -11.17774,4.02548 -22.5266,7.87484 -33.72773,11.87645 -2.34737,0.83859 83.07145,-29.1215 -7.10429,2.45094 0,0 27.08274,-13.10847 27.08274,-13.10847 z"
       transform="matrix(1.2982989,0,0,0.59135953,-111.92052,254.37249)" />
  </g>
</svg>
